<svg viewBox="0 0 25 25" xmlns="http://www.w3.org/2000/svg" xmlns:xlink="http://www.w3.org/1999/xlink">
	<g clip-path="url(#clip101_283)">
		<path id="Vector" d="M22.04 17.2C21.26 16.73 19.64 15.75 19.64 13.21C19.64 11.07 21.07 9.98 21.84 9.4L21.86 9.39C22.17 9.16 22.24 8.72 22.03 8.4C20.3 5.82 17.35 5.74 16.77 5.75L16.77 5.75C16.37 5.75 16 5.8 15.64 5.87C15.77 5.76 15.9 5.65 16.02 5.53C17.26 4.34 17.93 2.58 17.88 0.71C17.87 0.31 17.54 0 17.15 0C15.82 0 14.3 0.79 13.2 2.07C12.08 3.36 11.56 4.91 11.77 6.32C11.78 6.43 11.83 6.54 11.89 6.63C11.7 6.57 11.49 6.49 11.29 6.41C10.51 6.13 9.63 5.81 8.81 5.81C8.79 5.81 7.12 5.82 5.45 6.86C3.99 7.76 2.25 9.65 2.25 13.5C2.25 15.51 3.03 18.31 4.24 20.65C5.08 22.26 6.81 24.97 9.04 24.98L9.07 24.98C10.69 24.98 12.04 24.02 12.95 24.02C14.52 24.02 15.08 25 16.77 25C18.29 25 19.76 23.84 21.14 21.57C21.65 20.74 22.04 19.91 22.28 19.37C22.74 18.33 22.74 18.19 22.74 18.09C22.74 17.62 22.39 17.4 22.04 17.2ZM14.3 3.03C14.9 2.33 15.66 1.82 16.38 1.59C16.24 2.73 15.76 3.75 15.01 4.48C14.48 4.99 13.84 5.33 13.2 5.44C13.27 4.64 13.65 3.79 14.3 3.03ZM19.82 20.92C18.77 22.61 17.69 23.53 16.77 23.53C15.5 23.53 14.91 22.56 12.95 22.56C11.64 22.56 10.38 23.53 9.05 23.52C8.02 23.51 6.67 22.16 5.54 19.97C4.43 17.83 3.71 15.29 3.71 13.5C3.71 10.98 4.54 9.17 6.18 8.13C7.46 7.32 8.76 7.27 8.81 7.27C9.96 7.27 11.54 8.28 12.7 8.28C13.74 8.28 15.14 7.22 16.77 7.22L16.8 7.22C17.2 7.21 19.07 7.25 20.39 8.68C19.46 9.47 18.17 10.88 18.17 13.21C18.17 16.38 20.18 17.77 21.12 18.35C20.89 18.92 20.44 19.93 19.82 20.92Z" fill-opacity="1.000000" fill-rule="nonzero"/>
	</g>
</svg>
