<svg viewBox="0 0 30 30" xmlns="http://www.w3.org/2000/svg" xmlns:xlink="http://www.w3.org/1999/xlink">
	<g clip-path="url(#clip104_2)">
		<path id="Vector" d="M27.5 6.25L21.25 6.25L21.25 5C21.25 3.62 20.12 2.5 18.75 2.5L11.25 2.5C9.87 2.5 8.75 3.62 8.75 5L8.75 6.25L2.5 6.25C1.12 6.25 0 7.37 0 8.75L0 12.5C0 13.87 1.12 15 2.5 15L12.5 15L12.5 14.37C12.5 14.02 12.77 13.75 13.12 13.75L16.87 13.75C17.22 13.75 17.5 14.02 17.5 14.37L17.5 15L27.5 15C28.87 15 30 13.87 30 12.5L30 8.75C30 7.37 28.87 6.25 27.5 6.25ZM18.75 6.25L11.25 6.25L11.25 5L18.75 5L18.75 6.25Z" fill-opacity="1.000000" fill-rule="nonzero"/>
		<path id="Vector" d="M29.65 15.67C29.44 15.56 29.18 15.59 28.99 15.73C28.55 16.07 28.03 16.25 27.5 16.25L17.5 16.25L17.5 18.12C17.5 18.47 17.22 18.75 16.87 18.75L13.12 18.75C12.77 18.75 12.5 18.47 12.5 18.12L12.5 16.25L2.5 16.25C1.96 16.25 1.44 16.07 1 15.73C0.81 15.59 0.55 15.56 0.34 15.67C0.13 15.78 0 15.99 0 16.23L0 25C0 26.37 1.12 27.5 2.5 27.5L27.5 27.5C28.87 27.5 30 26.37 30 25L30 16.23C30 15.99 29.86 15.78 29.65 15.67Z" fill-opacity="1.000000" fill-rule="nonzero"/>
	</g>
</svg>
