<svg viewBox="0 0 25 25" xmlns="http://www.w3.org/2000/svg" xmlns:xlink="http://www.w3.org/1999/xlink">
	<path id="Vector" d="M12 9.37C12.49 9.37 12.9 9.78 12.9 10.27C12.9 10.73 13.26 11.09 13.72 11.09C14.17 11.09 14.54 10.73 14.54 10.27C14.54 9.16 13.81 8.22 12.81 7.88L12.81 7.42C12.81 6.96 12.45 6.59 12 6.59C11.54 6.59 11.17 6.96 11.17 7.42L11.17 7.88C10.18 8.22 9.45 9.16 9.45 10.27C9.45 11.68 10.59 12.82 12 12.82C12.49 12.82 12.9 13.22 12.9 13.72C12.9 14.21 12.49 14.62 12 14.62C11.5 14.62 11.09 14.21 11.09 13.72C11.09 13.26 10.73 12.9 10.27 12.9C9.82 12.9 9.45 13.26 9.45 13.72C9.45 14.83 10.18 15.77 11.17 16.11L11.17 16.57C11.17 17.03 11.54 17.4 12 17.4C12.45 17.4 12.81 17.03 12.81 16.57L12.81 16.11C13.81 15.77 14.54 14.83 14.54 13.72C14.54 12.32 13.4 11.18 12 11.18C11.5 11.18 11.09 10.77 11.09 10.27C11.09 9.78 11.5 9.37 12 9.37ZM18.87 16.55C19.27 16.76 19.76 16.61 19.97 16.21C20.66 14.92 21.02 13.46 21.02 12C21.02 7.02 16.97 2.97 12 2.97C7.02 2.97 2.97 7.02 2.97 12C2.97 16.97 7.02 21.02 12 21.02C13.44 21.02 14.88 20.67 16.15 20C16.55 19.8 16.71 19.3 16.5 18.9C16.29 18.5 15.8 18.34 15.39 18.55C14.34 19.1 13.2 19.38 12 19.38C7.93 19.38 4.61 16.07 4.61 12C4.61 7.93 7.93 4.61 12 4.61C16.07 4.61 19.38 7.93 19.38 12C19.38 13.2 19.08 14.39 18.53 15.44C18.31 15.84 18.47 16.34 18.87 16.55ZM12 -0.31C9.62 -0.31 7.31 0.37 5.32 1.66C4.94 1.9 4.83 2.41 5.08 2.79C5.33 3.17 5.83 3.28 6.22 3.03C7.94 1.92 9.94 1.33 12 1.33C17.87 1.33 22.66 6.12 22.66 12C22.66 17.87 17.87 22.66 12 22.66C6.12 22.66 1.33 17.87 1.33 12C1.33 9.96 1.91 7.97 3 6.26C3.25 5.88 3.14 5.37 2.75 5.13C2.37 4.88 1.87 5 1.62 5.38C0.36 7.35 -0.31 9.64 -0.31 12C-0.31 18.78 5.21 24.3 12 24.3C18.78 24.3 24.3 18.78 24.3 12C24.3 5.21 18.78 -0.31 12 -0.31Z" fill-opacity="1.000000" fill-rule="nonzero"/>
</svg>
