<svg viewBox="0 0 30 30" xmlns="http://www.w3.org/2000/svg" xmlns:xlink="http://www.w3.org/1999/xlink">
	<g clip-path="url(#clip126_70)">
		<path id="Vector" d="M25.13 0C23.41 0 22.02 1.39 22.02 3.1L22.02 12.37L27.36 12.37C27.84 12.37 28.23 11.98 28.23 11.49L28.23 3.1C28.23 1.39 26.84 0 25.13 0L25.13 0Z" fill-opacity="1.000000" fill-rule="nonzero"/>
		<path id="Vector" d="M10.62 22.08C10.62 16.78 14.94 12.4 20.32 12.42L20.32 3.48C20.32 2.14 20.82 0.92 21.65 0L6.15 0C3.73 0 1.76 1.97 1.76 4.39L1.76 29.1C1.76 29.89 2.72 30.28 3.27 29.71L4.39 28.53L5.58 29.72C5.92 30.06 6.48 30.06 6.82 29.72L7.95 28.6L9.09 29.72C9.43 30.06 9.98 30.06 10.33 29.72L11.48 28.58L12.64 29.72C12.98 30.06 13.53 30.06 13.87 29.72L14.1 29.5C11.92 27.68 10.62 24.99 10.62 22.08ZM8.87 7.08L10.6 7.08L10.6 5.35C10.6 4.86 10.99 4.47 11.48 4.47C11.96 4.47 12.36 4.86 12.36 5.35L12.36 7.08L14.09 7.08C14.58 7.08 14.97 7.48 14.97 7.96C14.97 8.45 14.58 8.84 14.09 8.84L12.36 8.84L12.36 10.58C12.36 11.06 11.96 11.46 11.48 11.46C10.99 11.46 10.6 11.06 10.6 10.58L10.6 8.84L8.87 8.84C8.38 8.84 7.99 8.45 7.99 7.96C7.99 7.48 8.38 7.08 8.87 7.08ZM6.21 13.24L12.12 13.24C12.61 13.24 13 13.63 13 14.12C13 14.6 12.61 15 12.12 15L6.21 15C5.72 15 5.33 14.6 5.33 14.12C5.33 13.63 5.72 13.24 6.21 13.24ZM9.14 22.02L6.2 22.02C5.71 22.02 5.32 21.63 5.32 21.14C5.32 20.66 5.71 20.27 6.2 20.27L9.14 20.27C9.62 20.27 10.02 20.66 10.02 21.14C10.02 21.63 9.62 22.02 9.14 22.02ZM9.72 18.51L6.2 18.51C5.72 18.51 5.32 18.12 5.32 17.63C5.32 17.15 5.72 16.76 6.2 16.76L9.72 16.76C10.21 16.76 10.6 17.15 10.6 17.63C10.6 18.12 10.21 18.51 9.72 18.51Z" fill-opacity="1.000000" fill-rule="nonzero"/>
		<path id="Vector" d="M20.29 14.17C15.93 14.17 12.38 17.72 12.38 22.08C12.38 26.45 15.93 30 20.29 30C24.65 30 28.2 26.45 28.2 22.08C28.2 17.72 24.65 14.17 20.29 14.17ZM21.17 25.47L21.17 25.55C21.17 26.04 20.78 26.43 20.29 26.43C19.81 26.43 19.41 26.04 19.41 25.55L19.41 25.54C19.02 25.44 18.65 25.29 18.36 25.1C17.96 24.83 17.84 24.29 18.11 23.88C18.38 23.48 18.92 23.36 19.33 23.63C19.69 23.86 20.28 23.95 20.57 23.82C20.76 23.73 20.91 23.54 20.93 23.36C20.97 22.97 20.36 22.75 20 22.61C19.45 22.39 18.76 22.12 18.36 21.4C17.79 20.37 18.29 19.02 19.41 18.56L19.41 18.52C19.41 18.03 19.81 17.64 20.29 17.64C20.77 17.64 21.16 18.02 21.17 18.5C21.49 18.6 21.78 18.76 22.01 18.98C22.37 19.3 22.39 19.86 22.06 20.22C21.73 20.57 21.18 20.6 20.82 20.27C20.68 20.13 20.23 20.08 20.04 20.21C19.91 20.3 19.85 20.47 19.9 20.55C20.08 20.88 21.06 21 21.79 21.57C23.3 22.74 22.77 24.86 21.17 25.47Z" fill-opacity="1.000000" fill-rule="nonzero"/>
	</g>
</svg>
