<svg viewBox="0 0 30 30" xmlns="http://www.w3.org/2000/svg" xmlns:xlink="http://www.w3.org/1999/xlink">
	<g clip-path="url(#clip104_31)">
		<path id="Vector" d="M14.76 30L12.42 30C11.25 30 10.31 29.05 10.31 27.89L10.31 13.35C10.31 12.19 11.25 11.25 12.42 11.25L14.76 11.25C15.92 11.25 16.87 12.19 16.87 13.35L16.87 27.89C16.87 29.05 15.92 30 14.76 30Z" fill-opacity="1.000000" fill-rule="nonzero"/>
		<path id="Vector" d="M5.85 30L3.51 30C2.35 30 1.4 29.05 1.4 27.89L1.4 18.04C1.4 16.88 2.35 15.93 3.51 15.93L5.85 15.93C7.02 15.93 7.96 16.88 7.96 18.04L7.96 27.89C7.96 29.05 7.02 30 5.85 30Z" fill-opacity="1.000000" fill-rule="nonzero"/>
		<path id="Vector" d="M23.67 30L21.32 30C20.16 30 19.21 29.05 19.21 27.89L19.21 8.43L17.93 8.43C17.32 8.43 16.79 8.09 16.54 7.55C16.29 7 16.38 6.37 16.77 5.92C16.77 5.91 16.78 5.91 16.78 5.9L21.8 0.31C21.97 0.11 22.23 0 22.49 0C22.76 0 23.02 0.11 23.19 0.31L28.21 5.9C28.21 5.91 28.22 5.91 28.22 5.92C28.61 6.37 28.7 7 28.45 7.55C28.2 8.09 27.67 8.43 27.06 8.43L25.78 8.43L25.78 27.89C25.78 29.05 24.83 30 23.67 30Z" fill-opacity="1.000000" fill-rule="nonzero"/>
	</g>
</svg>
