<svg viewBox="0 0 30 30" xmlns="http://www.w3.org/2000/svg" xmlns:xlink="http://www.w3.org/1999/xlink">
	<path id="Vector" d="M17.68 14.84C21.77 14.84 25.1 11.51 25.1 7.42C25.1 3.32 21.77 0 17.68 0C13.59 0 10.26 3.32 10.26 7.42C10.26 11.51 13.59 14.84 17.68 14.84ZM16.8 3.05L16.8 2.85C16.8 2.37 17.2 1.97 17.68 1.97C18.17 1.97 18.56 2.37 18.56 2.85L18.56 3.06C19.61 3.28 20.39 4.21 20.39 5.32C20.39 5.81 20 6.2 19.52 6.2C19.03 6.2 18.64 5.81 18.64 5.32C18.64 5.01 18.38 4.76 18.07 4.76L17.29 4.76C16.98 4.76 16.72 5.01 16.72 5.32C16.72 5.5 16.81 5.67 16.95 5.78L17.68 6.32L19.46 7.63C20.04 8.06 20.39 8.75 20.4 9.48L20.4 9.49C20.4 10.11 20.17 10.69 19.73 11.13C19.41 11.46 19 11.68 18.56 11.77L18.56 11.98C18.56 12.47 18.17 12.86 17.68 12.86C17.2 12.86 16.8 12.47 16.8 11.98L16.8 11.78C16.37 11.69 15.98 11.48 15.66 11.16C15.22 10.72 14.98 10.14 14.97 9.52C14.97 9.04 15.36 8.64 15.84 8.64L15.85 8.64C16.33 8.64 16.73 9.03 16.73 9.51C16.73 9.82 16.97 10.07 17.29 10.07C17.78 10.07 17.6 10.07 18.08 10.07C18.39 10.06 18.64 9.81 18.64 9.5L18.64 9.49C18.64 9.32 18.55 9.15 18.41 9.04L17.68 8.5L15.9 7.19C15.32 6.75 14.97 6.06 14.97 5.32C14.97 4.21 15.75 3.28 16.8 3.05Z" fill-opacity="1.000000" fill-rule="nonzero"/>
	<path id="Vector" d="M5.66 19.06C5.43 18.67 4.93 18.53 4.54 18.76L0.4 21.15C0.01 21.37 -0.12 21.88 0.1 22.27L4.33 29.59C4.56 29.98 5.06 30.11 5.45 29.89L9.58 27.5C9.98 27.27 10.11 26.77 9.88 26.38L5.66 19.06Z" fill-opacity="1.000000" fill-rule="nonzero"/>
	<path id="Vector" d="M29.35 17.6C28.95 17.05 28.18 16.92 27.63 17.32C25.95 18.53 22.74 20.84 22.48 21.03C22.36 21.13 22.24 21.22 22.11 21.3C21.61 21.62 21.02 21.79 20.41 21.79L16.2 21.79C15.71 21.79 15.32 21.39 15.32 20.91C15.32 20.42 15.71 20.03 16.2 20.03L20.7 20.03C21.36 20.03 21.89 19.48 21.86 18.82C21.84 18.19 21.3 17.7 20.67 17.7L17.24 17.7C17.01 17.45 16.76 17.23 16.48 17.03C15.55 16.34 14.39 15.93 13.14 15.93C10.91 15.93 8.69 17.33 7.77 19.21L11.37 25.43L18.11 25.43C19.44 25.43 20.74 25.1 21.89 24.44C22.29 24.21 22.71 23.93 23.17 23.6C25.11 22.21 29.06 19.32 29.07 19.32C29.62 18.92 29.75 18.15 29.35 17.6Z" fill-opacity="1.000000" fill-rule="nonzero"/>
</svg>
