<svg viewBox="0 0 30 30" xmlns="http://www.w3.org/2000/svg" xmlns:xlink="http://www.w3.org/1999/xlink">
	<g clip-path="url(#clip112_1079)">
		<path id="Vector" d="M27.31 4.09C23.41 4.09 20.43 3.11 18.62 2.29C16.64 1.4 15.58 0.5 15.57 0.49L15 0L14.42 0.49C14.41 0.5 13.35 1.4 11.37 2.29C9.56 3.11 6.58 4.09 2.68 4.09L1.8 4.09L1.8 16.16L15 30L28.19 16.18L28.19 4.09L27.31 4.09ZM24.67 12.3C24.67 13.67 24.14 14.95 23.18 15.92L15 24.42L6.81 15.92C5.85 14.95 5.32 13.67 5.32 12.3L5.32 11.85C5.32 9.02 7.61 6.73 10.44 6.73C11.7 6.73 12.92 7.19 13.86 8.04L14.96 9.03L15.77 8.23C16.74 7.26 18.02 6.73 19.39 6.73L19.55 6.73C22.38 6.73 24.67 9.02 24.67 11.85L24.67 12.3L24.67 12.3Z" fill-opacity="1.000000" fill-rule="nonzero"/>
		<path id="Vector" d="M19.55 8.49L19.39 8.49C18.49 8.49 17.65 8.84 17.02 9.47L15.03 11.46L12.68 9.35C12.07 8.79 11.27 8.49 10.44 8.49C8.58 8.49 7.08 9.99 7.08 11.85L7.08 12.3C7.08 13.2 7.43 14.04 8.06 14.68L8.07 14.69L15 21.88L21.93 14.68C22.56 14.04 22.91 13.2 22.91 12.3L22.91 11.85C22.91 9.99 21.41 8.49 19.55 8.49ZM17.63 16.4L15.88 16.4L15.88 18.16L14.12 18.16L14.12 16.4L12.36 16.4L12.36 14.64L14.12 14.64L14.12 12.89L15.88 12.89L15.88 14.64L17.63 14.64L17.63 16.4Z" fill-opacity="1.000000" fill-rule="nonzero"/>
	</g>
</svg>
