<svg viewBox="0 0 30 30" xmlns="http://www.w3.org/2000/svg" xmlns:xlink="http://www.w3.org/1999/xlink">
	<g clip-path="url(#clip152_659)">
		<path id="Vector" d="M9.98 5.62L20 5.62L22.17 3.89C22.9 3.3 23.18 2.35 22.87 1.46C22.56 0.57 21.75 0 20.81 0L9.18 0C8.24 0 7.43 0.57 7.12 1.46C6.81 2.35 7.09 3.3 7.82 3.89L9.98 5.62Z" fill-opacity="1.000000" fill-rule="nonzero"/>
		<path id="Vector" d="M20.18 7.5L9.81 7.5C6.4 10.85 3.75 16.73 3.75 21.56C3.75 25.76 5.97 30 10.93 30L19.37 30C23.61 30 26.25 26.76 26.25 21.56C26.25 16.73 23.59 10.85 20.18 7.5ZM14.52 17.81L15.47 17.81C16.93 17.81 18.12 19 18.12 20.46C18.12 21.77 17.17 22.85 15.93 23.07L15.93 24.06C15.93 24.57 15.51 24.99 15 24.99C14.48 24.99 14.06 24.57 14.06 24.06L14.06 23.12L12.81 23.12C12.29 23.12 11.87 22.7 11.87 22.18C11.87 21.67 12.29 21.25 12.81 21.25L15.47 21.25C15.9 21.25 16.25 20.9 16.25 20.47C16.25 20.03 15.9 19.68 15.47 19.68L14.52 19.68C13.06 19.68 11.87 18.49 11.87 17.03C11.87 15.72 12.82 14.64 14.06 14.42L14.06 13.43C14.06 12.92 14.48 12.5 15 12.5C15.51 12.5 15.93 12.92 15.93 13.43L15.93 14.37L17.18 14.37C17.7 14.37 18.12 14.79 18.12 15.31C18.12 15.83 17.7 16.25 17.18 16.25L14.52 16.25C14.09 16.25 13.75 16.59 13.75 17.02C13.75 17.46 14.09 17.81 14.52 17.81Z" fill-opacity="1.000000" fill-rule="nonzero"/>
	</g>
</svg>
