<svg viewBox="0 0 31 31" xmlns="http://www.w3.org/2000/svg" xmlns:xlink="http://www.w3.org/1999/xlink">
	<g clip-path="url(#clip104_372)">
		<path id="Vector" d="M19.62 7.66L22.68 7.66L22.62 5.8L20.04 5.8L22.47 0.79L19.72 0.56L17.31 2.4L18.12 0.32L15.31 0L14.38 2.6L12.87 0.58L8.7 0.44L11.46 5.8L8.97 5.72L8.97 7.66L11.37 7.66C6.25 10.65 2.56 18.48 2.56 22.71C2.56 28.01 8.35 31 15.49 31C22.64 31 28.43 28.01 28.43 22.71C28.43 18.48 24.74 10.65 19.62 7.66ZM16.58 25.25L16.58 27.09L14.81 27.09L14.81 25.38C13.61 25.33 12.44 25 11.75 24.61L12.29 22.5C13.05 22.92 14.11 23.29 15.28 23.29C16.31 23.29 17.01 22.9 17.01 22.18C17.01 21.49 16.43 21.06 15.1 20.61C13.17 19.96 11.86 19.06 11.86 17.32C11.86 15.73 12.98 14.49 14.9 14.11L14.9 12.4L16.67 12.4L16.67 13.99C17.87 14.04 18.68 14.29 19.28 14.58L18.75 16.62C18.29 16.42 17.46 16 16.16 16C14.99 16 14.61 16.51 14.61 17.01C14.61 17.61 15.24 17.98 16.77 18.56C18.91 19.32 19.78 20.3 19.78 21.93C19.78 23.53 18.65 24.89 16.58 25.25Z" fill-opacity="1.000000" fill-rule="nonzero"/>
	</g>
</svg>
