<svg viewBox="0 0 25 25" xmlns="http://www.w3.org/2000/svg" xmlns:xlink="http://www.w3.org/1999/xlink">
	<g clip-path="url(#clip101_311)">
		<path id="Vector" d="M20.29 13.26C19.83 13.26 19.37 13.33 18.93 13.46L13.23 15.04L13.23 6.98C13.23 6.57 13.56 6.25 13.96 6.25C14.36 6.25 14.69 6.57 14.69 6.98L14.69 12.68L15.42 12.68C18.25 12.68 20.55 10.38 20.55 7.55C20.55 5.26 19.01 3.23 16.81 2.61L7.35 0L7.35 12.55L3.56 13.6C3.11 13.71 2.68 13.89 2.28 14.13C0.06 15.46 -0.67 18.36 0.66 20.58C1.19 21.46 1.97 22.13 2.92 22.51C3.49 22.74 4.09 22.86 4.7 22.86C5.08 22.86 5.46 22.82 5.82 22.73L7.35 22.3L7.35 23.57L12.49 25L21.65 22.46L21.67 22.45C22.61 22.17 23.46 21.57 24.05 20.78C24.67 19.96 24.99 18.99 24.99 17.96C24.99 15.37 22.89 13.26 20.29 13.26ZM7.35 16.67L3.5 17.73L3.89 19.14L7.35 18.19L7.35 20.78L5.46 21.31C5.2 21.37 4.94 21.4 4.68 21.4C3.57 21.4 2.52 20.82 1.92 19.83C1 18.3 1.5 16.31 3.03 15.39C3.31 15.22 3.61 15.1 3.92 15.02L7.35 14.07L7.35 16.67ZM11.76 6.98L11.76 23.27L8.82 22.46L8.82 1.92L16.42 4.02C17.99 4.47 19.09 5.92 19.09 7.55C19.09 9.32 17.83 10.8 16.16 11.14L16.16 6.98C16.16 5.77 15.17 4.78 13.96 4.78C12.75 4.78 11.76 5.77 11.76 6.98ZM21.25 21.05L13.23 23.27L13.23 20.68L21.49 18.39L21.1 16.98L13.23 19.16L13.23 16.56L19.33 14.87L19.35 14.87C19.65 14.77 19.97 14.72 20.29 14.72C22.08 14.72 23.53 16.18 23.53 17.96C23.53 19.39 22.61 20.63 21.25 21.05Z" fill-opacity="1.000000" fill-rule="nonzero"/>
	</g>
</svg>
