<svg viewBox="0 0 30 30" xmlns="http://www.w3.org/2000/svg" xmlns:xlink="http://www.w3.org/1999/xlink">
	<g clip-path="url(#clip104_350)">
		<path id="Vector" d="M29.72 5.89L24.1 0.27C23.83 0 23.42 -0.08 23.07 0.07C22.72 0.21 22.5 0.55 22.5 0.93L22.5 3.74L10.31 3.74C4.61 3.74 0 8.36 0 14.06C0 14.57 0.42 14.99 0.93 14.99L4.68 14.99C5.2 14.99 5.62 14.57 5.62 14.06C5.62 11.47 7.72 9.37 10.31 9.37L22.5 9.37L22.5 12.18C22.5 12.56 22.72 12.9 23.07 13.05C23.42 13.19 23.83 13.11 24.1 12.85L29.72 7.22C30.09 6.85 30.09 6.26 29.72 5.89Z" fill-opacity="1.000000" fill-rule="nonzero"/>
		<path id="Vector" d="M29.06 14.99L25.31 14.99C24.79 14.99 24.37 15.41 24.37 15.93C24.37 18.52 22.27 20.62 19.68 20.62L7.5 20.62L7.5 17.81C7.5 17.43 7.27 17.08 6.92 16.94C6.57 16.8 6.16 16.88 5.89 17.14L0.27 22.77C-0.1 23.14 -0.1 23.73 0.27 24.1L5.89 29.72C6.16 29.99 6.57 30.07 6.92 29.92C7.27 29.78 7.5 29.43 7.5 29.06L7.5 26.24L19.68 26.24C25.38 26.24 29.99 21.63 29.99 15.93C29.99 15.41 29.57 14.99 29.06 14.99Z" fill-opacity="1.000000" fill-rule="nonzero"/>
	</g>
</svg>
