<svg viewBox="0 0 30 30" xmlns="http://www.w3.org/2000/svg" xmlns:xlink="http://www.w3.org/1999/xlink">
	<g clip-path="url(#clip126_48)">
		<path id="Vector" d="M27.98 14.36L26.19 14.36C25.79 13.22 25.13 12.21 24.29 11.38L27.05 10.16C27.44 9.99 27.65 9.55 27.54 9.14C27.21 7.91 26.09 7 24.76 7L22.49 7C21.18 7 20.08 7.87 19.73 9.07L17.33 9.07C16.43 12.39 13.39 14.85 9.79 14.85C7.59 14.85 5.6 13.93 4.18 12.46C3.77 13.04 3.45 13.66 3.21 14.33C2.49 14.17 1.9 13.6 1.73 12.86C1.63 12.39 1.16 12.09 0.68 12.2C0.21 12.3 -0.09 12.77 0.02 13.25C0.2 14.05 0.65 14.78 1.29 15.31C1.73 15.66 2.25 15.91 2.79 16.04C2.75 16.37 2.73 16.71 2.73 17.06L2.73 17.91C2.73 21.14 4.64 23.93 7.38 25.19L7.38 27.12C7.38 28.18 8.23 29.03 9.29 29.03C10.34 29.03 11.2 28.18 11.2 27.12L11.2 25.91L18.35 25.91L18.35 27.12C18.35 28.18 19.2 29.03 20.26 29.03C21.31 29.03 22.16 28.18 22.16 27.12L22.16 25.11C24.17 24.14 25.71 22.34 26.34 20.15L27.98 20.15C29.09 20.15 30 19.24 30 18.12L30 16.39C30 15.27 29.09 14.36 27.98 14.36ZM21.49 14.87C21.01 14.87 20.62 14.48 20.62 13.99C20.62 13.51 21.01 13.12 21.49 13.12C21.98 13.12 22.37 13.51 22.37 13.99C22.37 14.48 21.98 14.87 21.49 14.87Z" fill-opacity="1.000000" fill-rule="nonzero"/>
		<path id="Vector" d="M9.79 0.96C6.45 0.96 3.73 3.68 3.73 7.02C3.73 10.37 6.45 13.09 9.79 13.09C13.13 13.09 15.84 10.37 15.84 7.02C15.84 3.68 13.13 0.96 9.79 0.96ZM9.22 6.1L10.35 6.1C11.62 6.1 12.65 7.13 12.65 8.4C12.65 9.56 11.79 10.53 10.67 10.68L10.67 11.01C10.67 11.5 10.27 11.89 9.79 11.89C9.3 11.89 8.91 11.5 8.91 11.01L8.91 10.7L8.68 10.7C7.71 10.7 6.92 9.91 6.92 8.94C6.92 8.46 7.32 8.06 7.8 8.06C8.29 8.06 8.68 8.46 8.68 8.94L10.35 8.95C10.65 8.95 10.89 8.7 10.89 8.4C10.89 8.1 10.65 7.85 10.35 7.85L9.22 7.85C7.95 7.85 6.92 6.82 6.92 5.55C6.92 4.39 7.79 3.43 8.91 3.27L8.91 3.04C8.91 2.55 9.3 2.16 9.79 2.16C10.27 2.16 10.67 2.55 10.67 3.04L10.67 3.25L10.89 3.25C11.86 3.25 12.65 4.04 12.65 5.01C12.65 5.5 12.26 5.89 11.77 5.89C11.29 5.89 10.89 5.5 10.89 5.01C10.89 5.01 10.89 5.01 10.89 5.01L9.22 5.01C8.92 5.01 8.68 5.25 8.68 5.55C8.68 5.85 8.92 6.1 9.22 6.1Z" fill-opacity="1.000000" fill-rule="nonzero"/>
	</g>
</svg>
