<svg viewBox="0 0 28 28" xmlns="http://www.w3.org/2000/svg" xmlns:xlink="http://www.w3.org/1999/xlink">
	<g clip-path="url(#clip78_488)">
		<path id="Vector" d="M18.64 24.6L5.67 24.6C4.98 24.6 4.32 24.33 3.82 23.84C3.33 23.35 3.06 22.68 3.06 21.99L3.06 14.25C3.06 13.56 3.33 12.89 3.82 12.4C4.32 11.91 4.98 11.63 5.67 11.63L18.64 11.63C19.33 11.63 20 11.91 20.49 12.4C20.98 12.89 21.26 13.56 21.26 14.25L21.26 21.99C21.26 22.68 20.98 23.35 20.49 23.84C20 24.33 19.33 24.6 18.64 24.6ZM5.67 13.27C5.42 13.27 5.17 13.38 4.98 13.56C4.8 13.74 4.7 13.99 4.7 14.25L4.7 21.99C4.7 22.25 4.8 22.49 4.98 22.68C5.17 22.86 5.42 22.96 5.67 22.96L18.64 22.96C18.9 22.96 19.15 22.86 19.33 22.68C19.51 22.49 19.62 22.25 19.62 21.99L19.62 14.25C19.62 13.99 19.51 13.74 19.33 13.56C19.15 13.38 18.9 13.27 18.64 13.27L5.67 13.27Z" fill-opacity="1.000000" fill-rule="nonzero"/>
		<path id="Vector" d="M22.32 20.19L20.44 20.19C20.22 20.19 20.01 20.1 19.86 19.95C19.7 19.79 19.62 19.58 19.62 19.37C19.62 19.15 19.7 18.94 19.86 18.79C20.01 18.63 20.22 18.55 20.44 18.55L22.32 18.55C22.58 18.55 22.82 18.44 23.01 18.26C23.19 18.08 23.29 17.83 23.29 17.57L23.29 9.83C23.29 9.57 23.19 9.32 23.01 9.14C22.82 8.96 22.58 8.85 22.32 8.85L9.35 8.85C9.09 8.85 8.84 8.96 8.66 9.14C8.48 9.32 8.37 9.57 8.37 9.83L8.37 12.45C8.37 12.67 8.29 12.88 8.13 13.03C7.98 13.19 7.77 13.27 7.55 13.27C7.34 13.27 7.13 13.19 6.97 13.03C6.82 12.88 6.73 12.67 6.73 12.45L6.73 9.83C6.73 9.14 7.01 8.47 7.5 7.98C7.99 7.49 8.66 7.21 9.35 7.21L22.32 7.21C23.01 7.21 23.68 7.49 24.17 7.98C24.66 8.47 24.93 9.14 24.93 9.83L24.93 17.57C24.93 18.26 24.66 18.93 24.17 19.42C23.68 19.91 23.01 20.19 22.32 20.19Z" fill-opacity="1.000000" fill-rule="nonzero"/>
		<path id="Vector" d="M20.44 18.74L3.88 18.74C3.66 18.74 3.45 18.65 3.3 18.5C3.14 18.35 3.06 18.14 3.06 17.92L3.06 15.17C3.06 14.95 3.14 14.74 3.3 14.59C3.45 14.43 3.66 14.35 3.88 14.35L20.44 14.35C20.65 14.35 20.86 14.43 21.02 14.59C21.17 14.74 21.26 14.95 21.26 15.17L21.26 17.92C21.26 18.14 21.17 18.35 21.02 18.5C20.86 18.65 20.65 18.74 20.44 18.74ZM4.7 17.1L19.62 17.1L19.62 15.99L4.7 15.99L4.7 17.1Z" fill-opacity="1.000000" fill-rule="nonzero"/>
	</g>
</svg>
