<svg viewBox="0 0 30 30" xmlns="http://www.w3.org/2000/svg" xmlns:xlink="http://www.w3.org/1999/xlink">
	<g clip-path="url(#clip104_26)">
		<path id="Vector" d="M29.97 5.22C29.84 3.77 28.08 3.12 27.05 4.15L25.58 5.63C25.25 5.95 24.71 5.96 24.38 5.64C24.03 5.3 24.05 4.73 24.39 4.38L25.84 2.94C26.87 1.91 26.22 0.15 24.77 0.02C20.83 -0.33 17.7 3.34 18.75 7.23L0.83 25.15C-0.28 26.26 -0.28 28.05 0.83 29.16C1.93 30.27 3.74 30.27 4.84 29.16L22.76 11.25C26.6 12.29 30.32 9.2 29.97 5.22Z" fill-opacity="1.000000" fill-rule="nonzero"/>
		<path id="Vector" d="M1.87 6.88C1.91 6.96 1.97 7.04 2.03 7.1L4.58 9.65C4.92 9.99 5.48 9.99 5.82 9.65L7.11 8.35L9.58 10.82L6.94 13.46C6.26 14.15 6.26 15.26 6.94 15.95L7.22 16.23L16.23 7.21L15.96 6.93C15.27 6.25 14.16 6.25 13.47 6.93L10.83 9.58L8.36 7.11L9.65 5.82C9.99 5.47 9.99 4.92 9.65 4.57L7.11 2.03C7.04 1.96 6.96 1.91 6.88 1.86L3.63 0.23C3.29 0.06 2.88 0.13 2.61 0.4L0.39 2.62C0.12 2.89 0.06 3.3 0.23 3.64L1.87 6.88Z" fill-opacity="1.000000" fill-rule="nonzero"/>
		<path id="Vector" d="M21.38 15.11L15.12 21.37L22.31 28.56C24.03 30.29 26.83 30.29 28.56 28.56C30.29 26.83 30.29 24.03 28.56 22.3L21.38 15.11ZM26.53 26.52C26.18 26.86 25.63 26.86 25.28 26.52L20.29 21.53C19.95 21.19 19.95 20.63 20.29 20.29C20.64 19.95 21.19 19.95 21.54 20.29L26.53 25.28C26.87 25.62 26.87 26.18 26.53 26.52Z" fill-opacity="1.000000" fill-rule="nonzero"/>
	</g>
</svg>
