<svg viewBox="0 0 25 25" xmlns="http://www.w3.org/2000/svg" xmlns:xlink="http://www.w3.org/1999/xlink">
	<path id="Vector" d="M3.94 20.79C3.94 21.19 3.61 21.52 3.2 21.52C2.8 21.52 2.47 21.19 2.47 20.79C2.47 20.38 2.8 20.05 3.2 20.05C3.61 20.05 3.94 20.38 3.94 20.79Z" fill-opacity="1.000000" fill-rule="evenodd"/>
	<path id="Vector" d="M18.83 12.03C20.12 11.84 21.3 11.25 22.22 10.32C23.1 9.44 23.69 8.33 23.9 7.1C24.11 5.91 23.96 4.69 23.47 3.58C23.26 3.11 22.65 3 22.29 3.36L19.29 6.36C19.16 6.49 18.96 6.49 18.84 6.36L17.63 5.15C17.5 5.03 17.5 4.83 17.63 4.71L20.63 1.71C20.99 1.34 20.88 0.73 20.41 0.52C19.3 0.03 18.08 -0.12 16.89 0.09C15.66 0.3 14.55 0.89 13.67 1.77C12.74 2.69 12.15 3.87 11.96 5.16C11.8 6.23 11.93 7.3 12.32 8.28L10.12 10.09L5.22 5.18L6.08 4.32C6.39 4.01 6.36 3.5 6.02 3.23L2.7 0.6C2.4 0.37 1.99 0.39 1.72 0.65L-0.35 2.72C-0.61 2.99 -0.64 3.41 -0.4 3.7L2.23 7.02C2.5 7.36 3.01 7.39 3.32 7.08L4.18 6.22L8.99 11.02L-0.03 18.43C-1.23 19.38 -1.34 21.17 -0.25 22.25L1.74 24.24C2.82 25.33 4.61 25.22 5.56 24.02L12.97 15L13.71 15.75L12.64 16.82C12.37 17.09 12.35 17.54 12.61 17.83L18.2 24.05C19.29 25.27 21.19 25.32 22.35 24.16L23.16 23.35C24.32 22.18 24.26 20.28 23.03 19.18C23.03 19.18 23.03 19.18 23.03 19.18L16.78 13.65C16.49 13.39 16.05 13.41 15.78 13.68L14.75 14.71L13.9 13.87L15.71 11.67C16.69 12.06 17.76 12.19 18.83 12.03ZM2.86 5.46L1.15 3.3L2.3 2.15L4.46 3.86L2.86 5.46ZM16.33 15.2L22.06 20.28C22.35 20.54 22.52 20.89 22.53 21.28C22.54 21.67 22.4 22.04 22.12 22.31L21.31 23.12C21.04 23.39 20.67 23.54 20.29 23.53C19.9 23.52 19.54 23.36 19.28 23.07L14.17 17.36L16.33 15.2ZM14.93 10.3L12.35 13.45C12.35 13.45 12.35 13.45 12.35 13.45L4.42 23.1C4.42 23.1 4.42 23.11 4.41 23.11C4.01 23.63 3.24 23.67 2.78 23.21L0.78 21.21C0.32 20.75 0.36 19.98 0.88 19.58C0.88 19.57 0.89 19.57 0.89 19.57L10.54 11.64C10.54 11.64 10.54 11.64 10.54 11.64L13.69 9.06C13.95 8.84 14.03 8.46 13.87 8.15C12.95 6.37 13.28 4.22 14.7 2.8C15.58 1.93 16.76 1.46 17.96 1.46C18.22 1.46 18.47 1.49 18.73 1.53L16.59 3.67C15.9 4.36 15.9 5.5 16.59 6.19L17.8 7.4C18.49 8.09 19.63 8.09 20.32 7.4L22.46 5.26C22.71 6.7 22.25 8.23 21.19 9.29C19.77 10.71 17.62 11.04 15.84 10.12C15.53 9.96 15.15 10.04 14.93 10.3Z" fill-opacity="1.000000" fill-rule="nonzero"/>
</svg>
