<svg viewBox="0 0 21 17" xmlns="http://www.w3.org/2000/svg" xmlns:xlink="http://www.w3.org/1999/xlink">
	<path id="Vector" d="M14.64 16.6L1.67 16.6C0.98 16.6 0.32 16.33 -0.18 15.84C-0.67 15.35 -0.94 14.68 -0.94 13.99L-0.94 6.25C-0.94 5.56 -0.67 4.89 -0.18 4.4C0.32 3.91 0.98 3.63 1.67 3.63L14.64 3.63C15.33 3.63 16 3.91 16.49 4.4C16.98 4.89 17.26 5.56 17.26 6.25L17.26 13.99C17.26 14.68 16.98 15.35 16.49 15.84C16 16.33 15.33 16.6 14.64 16.6ZM1.67 5.27C1.42 5.27 1.17 5.38 0.98 5.56C0.8 5.74 0.7 5.99 0.7 6.25L0.7 13.99C0.7 14.25 0.8 14.49 0.98 14.68C1.17 14.86 1.42 14.96 1.67 14.96L14.64 14.96C14.9 14.96 15.15 14.86 15.33 14.68C15.51 14.49 15.62 14.25 15.62 13.99L15.62 6.25C15.62 5.99 15.51 5.74 15.33 5.56C15.15 5.38 14.9 5.27 14.64 5.27L1.67 5.27Z" fill-opacity="1.000000" fill-rule="nonzero"/>
	<path id="Vector" d="M18.32 12.19L16.44 12.19C16.22 12.19 16.01 12.1 15.86 11.95C15.7 11.79 15.62 11.58 15.62 11.37C15.62 11.15 15.7 10.94 15.86 10.79C16.01 10.63 16.22 10.55 16.44 10.55L18.32 10.55C18.58 10.55 18.82 10.44 19.01 10.26C19.19 10.08 19.29 9.83 19.29 9.57L19.29 1.83C19.29 1.57 19.19 1.32 19.01 1.14C18.82 0.96 18.58 0.85 18.32 0.85L5.35 0.85C5.09 0.85 4.84 0.96 4.66 1.14C4.48 1.32 4.37 1.57 4.37 1.83L4.37 4.45C4.37 4.67 4.29 4.88 4.13 5.03C3.98 5.19 3.77 5.27 3.55 5.27C3.34 5.27 3.13 5.19 2.97 5.03C2.82 4.88 2.73 4.67 2.73 4.45L2.73 1.83C2.73 1.14 3.01 0.47 3.5 -0.02C3.99 -0.51 4.66 -0.79 5.35 -0.79L18.32 -0.79C19.01 -0.79 19.68 -0.51 20.17 -0.02C20.66 0.47 20.93 1.14 20.93 1.83L20.93 9.57C20.93 10.26 20.66 10.93 20.17 11.42C19.68 11.91 19.01 12.19 18.32 12.19Z" fill-opacity="1.000000" fill-rule="nonzero"/>
	<path id="Vector" d="M16.44 10.74L-0.12 10.74C-0.34 10.74 -0.55 10.65 -0.7 10.5C-0.86 10.35 -0.94 10.14 -0.94 9.92L-0.94 7.17C-0.94 6.95 -0.86 6.74 -0.7 6.59C-0.55 6.43 -0.34 6.35 -0.12 6.35L16.44 6.35C16.65 6.35 16.86 6.43 17.02 6.59C17.17 6.74 17.26 6.95 17.26 7.17L17.26 9.92C17.26 10.14 17.17 10.35 17.02 10.5C16.86 10.65 16.65 10.74 16.44 10.74ZM0.7 9.1L15.62 9.1L15.62 7.99L0.7 7.99L0.7 9.1Z" fill-opacity="1.000000" fill-rule="nonzero"/>
</svg>
