<svg viewBox="0 0 30 30" xmlns="http://www.w3.org/2000/svg" xmlns:xlink="http://www.w3.org/1999/xlink">
	<g clip-path="url(#clip112_1069)">
		<path id="Vector" d="M25.96 25.91L24.37 8.35C24.32 7.86 23.92 7.5 23.43 7.5L20.62 7.5L20.62 5.62C20.62 4.11 20.03 2.7 18.97 1.64C17.93 0.59 16.48 0 14.99 0C11.89 0 9.37 2.52 9.37 5.62L9.37 7.5L6.56 7.5C6.07 7.5 5.67 7.86 5.62 8.35L4.03 25.91C3.93 26.95 4.28 28 4.99 28.77C5.7 29.55 6.71 30 7.76 30L22.23 30C23.28 30 24.29 29.55 25 28.78C25.71 28 26.06 26.95 25.96 25.91ZM18.74 7.5L11.24 7.5L11.24 5.62C11.24 3.55 12.93 1.87 14.99 1.87C15.99 1.87 16.95 2.27 17.65 2.96C18.36 3.67 18.74 4.61 18.74 5.62L18.74 7.5Z" fill-opacity="1.000000" fill-rule="nonzero"/>
	</g>
</svg>
