<svg viewBox="0 0 25 25" xmlns="http://www.w3.org/2000/svg" xmlns:xlink="http://www.w3.org/1999/xlink">
	<path id="Vector" d="M21.33 16.16C19.97 14.79 18.35 13.79 16.58 13.18C18.48 11.87 19.72 9.69 19.72 7.22C19.72 3.24 16.48 0 12.5 0C8.51 0 5.27 3.24 5.27 7.22C5.27 9.69 6.51 11.87 8.41 13.18C6.64 13.79 5.02 14.79 3.66 16.16C1.3 18.52 0 21.66 0 25L1.95 25C1.95 19.18 6.68 14.45 12.5 14.45C18.31 14.45 23.04 19.18 23.04 25L25 25C25 21.66 23.69 18.52 21.33 16.16ZM12.5 12.5C9.59 12.5 7.22 10.13 7.22 7.22C7.22 4.31 9.59 1.95 12.5 1.95C15.4 1.95 17.77 4.31 17.77 7.22C17.77 10.13 15.4 12.5 12.5 12.5Z" fill-opacity="1.000000" fill-rule="nonzero"/>
</svg>
