<svg viewBox="0 0 30 30" xmlns="http://www.w3.org/2000/svg" xmlns:xlink="http://www.w3.org/1999/xlink">
  <g clip-path="url(#clip104_391)">
		<path id="Vector" d="M15.87 15.87L15.87 0C7.37 0.44 0.44 7.37 0 15.87L15.87 15.87ZM12.36 13.24L10.6 13.24L10.6 11.48L12.36 11.48L12.36 13.24ZM7.09 7.96L8.84 7.96L8.84 9.72L7.09 9.72L7.09 7.96ZM11.48 7.6L12.72 8.84L7.96 13.6L6.72 12.36L11.48 7.6Z" fill-opacity="1.000000" fill-rule="nonzero"/>
		<path id="Vector" d="M15.87 17.63L5.36 17.63C5.79 23.23 10.27 27.72 15.87 28.14L15.87 17.63L15.87 17.63Z" fill-opacity="1.000000" fill-rule="nonzero"/>
		<path id="Vector" d="M17.63 3.51C17.63 3.7 17.63 30.2 17.63 29.99C24.49 29.54 29.99 23.64 29.99 16.66C29.99 9.69 24.49 3.96 17.63 3.51ZM22.91 15.87C24.36 15.87 25.54 17.06 25.54 18.51C25.54 19.65 24.8 20.62 23.78 20.98L23.78 22.9L22.03 22.9L22.03 20.98C21.01 20.62 20.27 19.65 20.27 18.51L22.03 18.51C22.03 18.99 22.42 19.39 22.91 19.39C23.39 19.39 23.78 18.99 23.78 18.51C23.78 18.03 23.39 17.63 22.91 17.63C21.45 17.63 20.27 16.45 20.27 14.99C20.27 13.85 21.01 12.88 22.03 12.52L22.03 10.6L23.78 10.6L23.78 12.52C24.8 12.88 25.54 13.85 25.54 14.99L23.78 14.99C23.78 14.51 23.39 14.12 22.91 14.12C22.42 14.12 22.03 14.51 22.03 14.99C22.03 15.48 22.42 15.87 22.91 15.87Z" fill-opacity="1.000000" fill-rule="nonzero"/>
	</g>
</svg>
