<svg viewBox="0 0 25 25" xmlns="http://www.w3.org/2000/svg" xmlns:xlink="http://www.w3.org/1999/xlink">
	<g clip-path="url(#clip101_199)">
		<path id="Vector" d="M4.94 20.79C4.94 21.19 4.61 21.52 4.2 21.52C3.8 21.52 3.47 21.19 3.47 20.79C3.47 20.38 3.8 20.05 4.2 20.05C4.61 20.05 4.94 20.38 4.94 20.79Z" fill-opacity="1.000000" fill-rule="evenodd"/>
		<path id="Vector" d="M19.83 12.03C21.12 11.84 22.3 11.25 23.22 10.32C24.1 9.44 24.69 8.33 24.9 7.1C25.11 5.91 24.96 4.69 24.47 3.58C24.26 3.11 23.65 3 23.29 3.36L20.29 6.36C20.16 6.49 19.96 6.49 19.84 6.36L18.63 5.15C18.5 5.03 18.5 4.83 18.63 4.71L21.63 1.71C21.99 1.34 21.88 0.73 21.41 0.52C20.3 0.03 19.08 -0.12 17.89 0.09C16.66 0.3 15.55 0.89 14.67 1.77C13.74 2.69 13.15 3.87 12.96 5.16C12.8 6.23 12.93 7.3 13.32 8.28L11.12 10.09L6.22 5.18L7.08 4.32C7.39 4.01 7.36 3.5 7.02 3.23L3.7 0.6C3.4 0.37 2.99 0.39 2.72 0.65L0.65 2.72C0.39 2.99 0.36 3.41 0.6 3.7L3.23 7.02C3.5 7.36 4.01 7.39 4.32 7.08L5.18 6.22L9.99 11.02L0.97 18.43C-0.23 19.38 -0.34 21.17 0.75 22.25L2.74 24.24C3.82 25.33 5.61 25.22 6.56 24.02L13.97 15L14.71 15.75L13.64 16.82C13.37 17.09 13.35 17.54 13.61 17.83L19.2 24.05C20.29 25.27 22.19 25.32 23.35 24.16L24.16 23.35C25.32 22.18 25.26 20.28 24.03 19.18C24.03 19.18 24.03 19.18 24.03 19.18L17.78 13.65C17.49 13.39 17.05 13.41 16.78 13.68L15.75 14.71L14.9 13.87L16.71 11.67C17.69 12.06 18.76 12.19 19.83 12.03ZM3.86 5.46L2.15 3.3L3.3 2.15L5.46 3.86L3.86 5.46ZM17.33 15.2L23.06 20.28C23.35 20.54 23.52 20.89 23.53 21.28C23.54 21.67 23.4 22.04 23.12 22.31L22.31 23.12C22.04 23.39 21.67 23.54 21.29 23.53C20.9 23.52 20.54 23.36 20.28 23.07L15.17 17.36L17.33 15.2ZM15.93 10.3L13.35 13.45C13.35 13.45 13.35 13.45 13.35 13.45L5.42 23.1C5.42 23.1 5.42 23.11 5.41 23.11C5.01 23.63 4.24 23.67 3.78 23.21L1.78 21.21C1.32 20.75 1.36 19.98 1.88 19.58C1.88 19.57 1.89 19.57 1.89 19.57L11.54 11.64C11.54 11.64 11.54 11.64 11.54 11.64L14.69 9.06C14.95 8.84 15.03 8.46 14.87 8.15C13.95 6.37 14.28 4.22 15.7 2.8C16.58 1.93 17.76 1.46 18.96 1.46C19.22 1.46 19.47 1.49 19.73 1.53L17.59 3.67C16.9 4.36 16.9 5.5 17.59 6.19L18.8 7.4C19.49 8.09 20.63 8.09 21.32 7.4L23.46 5.26C23.71 6.7 23.25 8.23 22.19 9.29C20.77 10.71 18.62 11.04 16.84 10.12C16.53 9.96 16.15 10.04 15.93 10.3Z" fill-opacity="1.000000" fill-rule="nonzero"/>
	</g>
</svg>
