<svg viewBox="0 0 30 30" xmlns="http://www.w3.org/2000/svg" xmlns:xlink="http://www.w3.org/1999/xlink">
	<g clip-path="url(#clip112_1089)">
		<path id="Vector" d="M26.48 20.03C25.67 22.21 24.45 24.11 22.85 25.68C21.03 27.45 18.65 28.87 15.77 29.87C15.67 29.91 15.58 29.93 15.48 29.95C15.35 29.98 15.21 29.99 15.08 30L15.05 30C14.91 30 14.77 29.98 14.63 29.95C14.53 29.93 14.44 29.91 14.34 29.87C11.46 28.87 9.07 27.46 7.25 25.68C5.65 24.12 4.43 22.22 3.62 20.03C2.16 16.06 2.24 11.68 2.31 8.16L2.31 8.11C2.33 7.82 2.33 7.52 2.34 7.18C2.36 5.52 3.68 4.16 5.33 4.06C8.78 3.87 11.45 2.75 13.73 0.52L13.75 0.51C14.13 0.16 14.61 -0.01 15.08 0C15.54 0 15.99 0.17 16.36 0.51L16.38 0.52C18.66 2.75 21.33 3.87 24.78 4.06C26.43 4.16 27.75 5.52 27.77 7.18C27.78 7.52 27.78 7.82 27.8 8.11L27.8 8.13C27.86 11.66 27.95 16.04 26.48 20.03Z" fill-opacity="1.000000" fill-rule="nonzero"/>
		<path id="Vector" d="M26.48 20.03C25.67 22.21 24.45 24.11 22.85 25.68C21.03 27.45 18.65 28.87 15.77 29.87C15.67 29.91 15.58 29.93 15.48 29.95C15.35 29.98 15.21 29.99 15.08 30L15.08 0C15.54 0 15.99 0.17 16.36 0.51L16.38 0.52C18.66 2.75 21.33 3.87 24.78 4.06C26.43 4.16 27.75 5.52 27.77 7.18C27.78 7.52 27.78 7.82 27.8 8.11L27.8 8.13C27.86 11.66 27.95 16.04 26.48 20.03Z"  fill-opacity="1.000000" fill-rule="nonzero"/>
		<path id="Vector" d="M22.53 15C22.53 19.11 19.19 22.46 15.08 22.47L15.05 22.47C10.93 22.47 7.58 19.12 7.58 15C7.58 10.87 10.93 7.52 15.05 7.52L15.08 7.52C19.19 7.53 22.53 10.88 22.53 15Z" fill="#FFFFFF" fill-opacity="1.000000" fill-rule="nonzero"/>
		<path id="Vector" d="M19.65 13.79L15.11 17.82L14.13 18.69C13.9 18.89 13.59 19 13.29 19C12.99 19 12.68 18.89 12.45 18.69L10.34 16.82C9.88 16.41 9.88 15.74 10.34 15.33C10.81 14.92 11.56 14.92 12.02 15.33L13.29 16.45L17.97 12.3C18.43 11.89 19.18 11.89 19.65 12.3C20.11 12.71 20.11 13.38 19.65 13.79Z" fill-opacity="1.000000" fill-rule="nonzero"/>
	</g>
</svg>
